<svg xmlns="http://www.w3.org/2000/svg" version="1.1" xmlns:xlink="http://www.w3.org/1999/xlink" xmlns:svgjs="http://svgjs.dev/svgjs" width="2000" height="2000" viewBox="0 0 2000 2000"><g transform="matrix(1,0,0,1,0,0.00021599733793209452)"><svg viewBox="0 0 280 280" data-background-color="#ffffff" preserveAspectRatio="xMidYMid meet" height="2000" width="2000" xmlns="http://www.w3.org/2000/svg" xmlns:xlink="http://www.w3.org/1999/xlink"><g id="tight-bounds" transform="matrix(1,0,0,1,0,-0.000030239627307082628)"><svg viewBox="0 0 280 280" height="280" width="280"><g><svg viewBox="0 0 280 280" height="280" width="280"><g><svg viewBox="0 0 280 280" height="280" width="280"><g id="textblocktransform"><svg viewBox="0 0 280 280" height="280" width="280" id="textblock"><g><svg viewBox="0 0 280 280" height="280" width="280"><g transform="matrix(1,0,0,1,57.50420886156945,57.50420886156945)"><svg viewBox="0 0 164.9915822768611 164.9915822768611" height="164.9915822768611" width="164.9915822768611"><g><circle r="82" cx="82.49579113843055" cy="82.49579113843055" fill="#000000" data-fill-palette-color="accent"></circle><svg xmlns="http://www.w3.org/2000/svg" data-name="Layer 1" viewBox="9 14.909999999999998 82 70.16" x="24.748737341529164" y="24.74873734152917" height="115.49410759380275" width="115.49410759380275" class="icon-xg-0" data-fill-palette-color="quaternary" id="xg-0"><path d="M79.71 74.26H20.29C14.06 74.26 9 70 9 64.76V46.34c0-5.24 5.06-9.5 11.29-9.5H79.71c6.22 0 11.29 4.26 11.29 9.5V64.76C91 70 85.94 74.26 79.71 74.26ZM20.29 38.83c-5.12 0-9.29 3.37-9.29 7.5V64.76c0 4.14 4.17 7.5 9.29 7.5H79.71c5.12 0 9.29-3.37 9.29-7.5V46.34c0-4.14-4.17-7.5-9.29-7.5Z" fill="#ffffff" data-fill-palette-color="quaternary"></path><path d="M61.47 54.28H38.53c-1.34 0-2.39-1.31-2.39-3s1-3 2.39-3H61.47c1.34 0 2.38 1.31 2.38 3S62.81 54.28 61.47 54.28Zm0-4H38.53a1.12 1.12 0 0 0-0.39 1c0 0.63 0.29 1 0.39 1H61.47a1.11 1.11 0 0 0 0.38-1C61.86 50.67 61.56 50.33 61.47 50.31Z" fill="#ffffff" data-fill-palette-color="quaternary"></path><path d="M61.47 62.79H38.53c-1.34 0-2.39-1.31-2.39-3s1-3 2.39-3H61.47c1.34 0 2.38 1.31 2.38 3S62.81 62.79 61.47 62.79Zm0-4H38.53a1.12 1.12 0 0 0-0.39 1c0 0.63 0.29 1 0.39 1H61.47a1.12 1.12 0 0 0 0.38-1C61.86 59.17 61.56 58.83 61.47 58.81Z" fill="#ffffff" data-fill-palette-color="quaternary"></path><path d="M25.41 63.79a8.25 8.25 0 1 1 8.25-8.25A8.26 8.26 0 0 1 25.41 63.79Zm0-14.49a6.25 6.25 0 1 0 6.25 6.25A6.25 6.25 0 0 0 25.41 49.3Z" fill="#ffffff" data-fill-palette-color="quaternary"></path><path d="M74.59 63.79a8.25 8.25 0 1 1 8.25-8.25A8.26 8.26 0 0 1 74.59 63.79Zm0-14.49a6.25 6.25 0 1 0 6.25 6.25A6.25 6.25 0 0 0 74.59 49.3Z" fill="#ffffff" data-fill-palette-color="quaternary"></path><path d="M79.71 38.83a1 1 0 0 1-1-1v-13c0-4.36-4.5-7.92-10-7.92H31.31c-5.53 0-10 3.55-10 7.92v13a1 1 0 0 1-2 0v-13c0-5.47 5.4-9.92 12-9.92H68.69c6.63 0 12 4.45 12 9.92v13A1 1 0 0 1 79.71 38.83Z" fill="#ffffff" data-fill-palette-color="quaternary"></path><path d="M73 38.83a1 1 0 0 1-1-1 10.78 10.78 0 1 0-21.56 0 1 1 0 1 1-2 0 12.78 12.78 0 1 1 25.56 0A1 1 0 0 1 73 38.83Z" fill="#ffffff" data-fill-palette-color="quaternary"></path><path d="M35.69 85.07H20.29a1 1 0 0 1-1-1V73.26a1 1 0 0 1 2 0v9.81H34.69V73.26a1 1 0 0 1 2 0V84.07A1 1 0 0 1 35.69 85.07Z" fill="#ffffff" data-fill-palette-color="quaternary"></path><path d="M79.71 85.07H64.1a1 1 0 0 1-1-1V73.26a1 1 0 0 1 2 0v9.81H78.71V73.26a1 1 0 0 1 2 0V84.07A1 1 0 0 1 79.71 85.07Z" fill="#ffffff" data-fill-palette-color="quaternary"></path><path d="M76.29 38.83a1 1 0 0 1-1-1V27.62c0-4.36-1.1-7.06-6.6-7.06H31.31c-5.5 0-6.6 2.7-6.6 7.06V37.83a1 1 0 0 1-2 0V27.62c0-4.22 1-9.06 8.6-9.06H68.69c7.62 0 8.6 4.84 8.6 9.06V37.83A1 1 0 0 1 76.29 38.83Z" fill="#ffffff" data-fill-palette-color="quaternary"></path><path d="M69.49 38.8a1 1 0 0 1-1-1 7.28 7.28 0 1 0-14.56 0 1 1 0 0 1-2 0 9.28 9.28 0 1 1 18.56 0A1 1 0 0 1 69.49 38.8Z" fill="#ffffff" data-fill-palette-color="quaternary"></path></svg></g></svg></g><g><path d="M36.658 91.291l-7.949-0.044-4.253 11.717 6.154 4.989-0.898 2.472-23.134-19.29 0.843-2.32 30.245-0.301zM9.842 91.158l12.947 10.468 3.77-10.384z" fill="#000000" data-fill-palette-color="primary"></path><path d="M47.021 68.54c0.255 1.233 0.269 2.428 0.04 3.586-0.228 1.158-0.534 2.078-0.919 2.761-0.385 0.683-0.784 1.341-1.199 1.972-0.415 0.631-0.923 1.282-1.525 1.952v0l8.454 5.557-1.275 2.309-24.485-16.092c0.168-0.6 0.432-1.516 0.79-2.749 0.359-1.233 0.919-2.43 1.683-3.592 0.763-1.161 1.518-2.101 2.265-2.821 0.747-0.72 1.629-1.262 2.644-1.628v0c2.419-0.832 5.139-0.255 8.16 1.731 3.021 1.986 4.81 4.323 5.367 7.014zM28.91 69.276l12.783 8.402c0.602-0.573 1.155-1.242 1.659-2.009v0c1.452-2.209 1.917-4.341 1.395-6.396-0.522-2.054-1.967-3.859-4.334-5.415-2.367-1.556-4.458-2.058-6.273-1.508v0c-1.262 0.397-2.334 1.267-3.216 2.608-0.882 1.341-1.553 2.781-2.014 4.318z" fill="#000000" data-fill-palette-color="primary"></path><path d="M64.33 50.091c-0.009 1.259-0.247 2.431-0.712 3.515-0.466 1.084-0.958 1.92-1.478 2.507-0.519 0.588-1.048 1.147-1.586 1.677-0.538 0.53-1.171 1.06-1.9 1.589v0l7.102 7.206-1.732 1.99-20.566-20.867c0.29-0.551 0.74-1.392 1.349-2.523 0.609-1.131 1.409-2.184 2.398-3.159 0.99-0.975 1.925-1.736 2.807-2.283 0.882-0.547 1.857-0.893 2.926-1.038v0c2.54-0.306 5.078 0.829 7.616 3.404 2.538 2.575 3.797 5.236 3.776 7.982zM46.468 47.014l10.737 10.895c0.709-0.434 1.39-0.972 2.044-1.616v0c1.883-1.856 2.785-3.843 2.704-5.961-0.08-2.118-1.114-4.186-3.102-6.204-1.988-2.018-3.928-2.947-5.818-2.789v0c-1.317 0.124-2.548 0.749-3.691 1.876-1.143 1.127-2.102 2.393-2.874 3.799z" fill="#000000" data-fill-palette-color="primary"></path><path d="M93.226 34.837l-6.07-5.132-10.778 6.26 1.521 7.775-2.274 1.321-5.376-29.637 2.134-1.24 23.397 19.169zM72.738 17.534l3.219 16.336 9.553-5.549z" fill="#000000" data-fill-palette-color="primary"></path><path d="M107.326 26.807v0c0.631 0.031 1.565-0.146 2.802-0.529 1.237-0.383 2.679-1.38 4.326-2.992v0l-4.848-15.656 2.453-0.971 6.045 19.522-2.513 0.778-0.646-2.088c-1.452 2.06-3.171 3.397-5.155 4.011v0c-2.474 0.766-4.493 0.586-6.056-0.539v0c-0.79-0.546-1.385-1.463-1.784-2.752v0l-4.405-14.226 2.453-0.971 4.261 13.762c0.495 1.598 1.517 2.482 3.067 2.651z" fill="#000000" data-fill-palette-color="primary"></path><path d="M136.797 20.99l0.702 2.126c-0.434 0.532-1.283 0.861-2.544 0.988v0c-1.772 0.179-3.012-0.157-3.722-1.008v0c-1.147-0.888-1.806-2.177-1.976-3.868v0l-1.249-12.401-2.255 0.227 0.127-2.372 1.893-0.191-0.402-3.986 2.593-0.505 0.426 4.228 4.67-0.471 0.236 2.335-4.671 0.471 1.315 13.046c0.157 1.557 1.041 2.254 2.651 2.092v0c0.698-0.07 1.433-0.307 2.206-0.711z" fill="#000000" data-fill-palette-color="primary"></path><path d="M146.261 18.86v0c-0.374-1.332-0.487-2.858-0.34-4.578v0c0.282-3.306 1.432-5.828 3.448-7.564 2.017-1.737 4.423-2.486 7.219-2.247v0c4.382 0.374 7.106 2.394 8.174 6.059v0c0.401 1.334 0.527 2.861 0.38 4.581v0c-0.282 3.306-1.432 5.828-3.448 7.565-2.017 1.737-4.423 2.486-7.219 2.247v0c-4.382-0.374-7.12-2.395-8.214-6.063zM148.566 14.224c-0.211 2.473 0.264 4.443 1.424 5.909 1.161 1.467 2.749 2.286 4.766 2.458 2.016 0.172 3.758-0.403 5.224-1.727 1.467-1.323 2.306-3.222 2.517-5.694 0.211-2.473-0.257-4.442-1.404-5.908-1.147-1.465-2.736-2.285-4.766-2.458-2.03-0.173-3.778 0.402-5.244 1.725-1.467 1.323-2.306 3.222-2.517 5.695z" fill="#000000" data-fill-palette-color="primary"></path><path d="M176.949 29.171l-2.618-0.847 8.723-26.952 5.582 1.807c3.157 1.022 5.28 2.262 6.368 3.72v0c1.269 1.687 1.451 3.929 0.545 6.727v0c-1.512 4.672-4.231 6.939-8.157 6.802v0c-1.263-0.04-2.626-0.297-4.089-0.77v0l-2.965-0.96zM187.758 5.234l-2.772-0.897-3.962 12.244 2.772 0.897c2.31 0.748 4.2 0.799 5.671 0.155 1.47-0.644 2.577-2.115 3.32-4.412 0.744-2.297 0.669-4.016-0.224-5.156-0.893-1.14-2.495-2.083-4.805-2.831z" fill="#000000" data-fill-palette-color="primary"></path><path d="M202.334 28.987l-0.321 0.563c-2.354 4.123-1.564 7.309 2.373 9.556v0c1.663 0.95 3.313 1.597 4.949 1.941v0c0.418 0.084 0.718 0.13 0.899 0.14v0l-0.536 2.164c-1.101 0.024-2.789-0.474-5.066-1.495v0c-0.636-0.301-1.294-0.645-1.973-1.033v0c-1.968-1.124-3.327-2.552-4.077-4.285v0c-1.041-2.366-0.673-5.106 1.107-8.222 1.779-3.116 3.961-5.047 6.546-5.793 2.585-0.745 5.037-0.456 7.356 0.869 2.319 1.324 3.637 3.071 3.952 5.239v0c0.208 1.703-0.25 3.539-1.373 5.507v0c-0.268 0.469-0.572 0.947-0.913 1.436v0l-12.546-7.164c-0.13 0.174-0.256 0.366-0.377 0.577zM212.488 25.651v0c-1.453-0.829-2.945-1.099-4.478-0.809-1.533 0.29-2.893 1.012-4.08 2.167v0l10.226 5.84c1.368-2.667 1.223-4.754-0.433-6.26v0c-0.355-0.358-0.767-0.671-1.235-0.938z" fill="#000000" data-fill-palette-color="primary"></path><path d="M235.496 49.336l2.684-3.3c-0.59-0.999-1.317-1.886-2.18-2.66v0c-1.748-1.566-3.654-2.259-5.717-2.08-2.063 0.18-4.013 1.295-5.849 3.344v0c-3.205 3.577-3.149 6.85 0.166 9.821v0c1.326 1.188 2.891 2.191 4.693 3.01v0c0.353 0.172 0.578 0.264 0.674 0.278v0l-0.976 2.06c-1.081-0.208-2.627-1.05-4.637-2.526v0c-0.558-0.428-1.129-0.903-1.712-1.425v0c-1.708-1.53-2.736-3.212-3.085-5.046v0c-0.503-2.552 0.443-5.164 2.837-7.836 2.394-2.672 4.954-4.083 7.677-4.233 2.724-0.149 5.221 0.793 7.492 2.827v0c0.723 0.648 1.406 1.432 2.049 2.353 0.643 0.92 1.005 1.779 1.087 2.576v0l-3.538 3.949z" fill="#000000" data-fill-palette-color="primary"></path><path d="M247.277 58.609l1.141-1.733c2.91 1.518 5.049 3.147 6.417 4.887v0c1.033 1.417 1.652 2.644 1.856 3.679 0.205 1.036 0.16 2.028-0.133 2.977-0.293 0.948-1.018 1.844-2.173 2.686v0l-11.707 8.535-1.55-2.125 1.243-0.906c-3.093-2.319-4.949-3.904-5.569-4.754v0c-0.032-0.044-0.056-0.076-0.072-0.098v0c-1.43-1.962-1.808-3.74-1.134-5.334v0c0.245-0.579 0.563-1.037 0.954-1.371 0.39-0.335 0.727-0.605 1.01-0.812v0c0.785-0.572 1.71-0.78 2.777-0.622 1.066 0.157 2.018 0.582 2.856 1.273v0c1.42 1.169 3.511 3.35 6.274 6.544v0l2.649-1.931c2.376-1.732 2.658-3.841 0.846-6.326v0c-1.271-1.744-3.167-3.267-5.685-4.569zM238.753 66.426v0c-1.57 1.144-1.568 2.796 0.006 4.954v0c1.256 1.722 2.874 3.163 4.855 4.323v0l4.676-3.409c-2.959-3.051-4.863-4.885-5.713-5.501v0c-1.437-1.056-2.712-1.178-3.824-0.367z" fill="#000000" data-fill-palette-color="primary"></path><path d="M270.067 90.512l-2.329 0.362c-0.113-1.018-0.52-2.286-1.222-3.805-0.701-1.519-1.513-2.57-2.436-3.154-0.923-0.584-1.783-0.692-2.579-0.325-0.796 0.367-1.265 0.881-1.406 1.541-0.141 0.66-0.171 1.416-0.089 2.269 0.082 0.854 0.201 1.772 0.357 2.755 0.156 0.983 0.208 1.932 0.156 2.847v0c-0.09 2.122-1.005 3.584-2.744 4.387-1.739 0.803-3.348 0.825-4.828 0.067-1.479-0.758-2.745-2.277-3.796-4.555v0c-0.531-1.151-0.927-2.313-1.186-3.486-0.259-1.173-0.311-2.137-0.154-2.893v0l2.321-0.091c-0.23 0.79-0.059 2.092 0.511 3.909v0c0.175 0.573 0.393 1.141 0.653 1.705v0c0.588 1.274 1.343 2.218 2.266 2.832 0.922 0.614 1.922 0.673 3 0.175v0c0.735-0.339 1.197-0.85 1.388-1.532 0.19-0.682 0.257-1.456 0.199-2.321-0.058-0.865-0.177-1.783-0.358-2.754-0.181-0.971-0.263-1.906-0.247-2.805 0.016-0.899 0.199-1.726 0.548-2.482 0.349-0.756 1.014-1.36 1.994-1.812v0c1.592-0.735 3.149-0.711 4.669 0.073 1.521 0.784 2.756 2.204 3.706 4.263v0c0.237 0.514 0.45 1.055 0.637 1.622 0.188 0.567 0.359 1.083 0.513 1.546v0z" fill="#000000" data-fill-palette-color="primary"></path><path d="M17.258 199.277l6.126-5.065-4.253-11.716-7.921 0.12-0.898-2.473 30.121-0.041 0.843 2.32-23.01 19.632zM37.915 182.178l-16.647 0.274 3.769 10.385z" fill="#000000" data-fill-palette-color="primary"></path><path d="M34.508 223.21c-1.233-0.255-2.336-0.717-3.308-1.385-0.972-0.669-1.696-1.315-2.17-1.939-0.475-0.624-0.92-1.252-1.335-1.884-0.415-0.631-0.81-1.356-1.186-2.174v0l-8.455 5.557-1.614-2.087 24.485-16.092c0.484 0.392 1.221 0.998 2.21 1.816 0.99 0.818 1.866 1.808 2.63 2.969 0.763 1.161 1.327 2.227 1.69 3.199 0.364 0.971 0.513 1.996 0.446 3.073v0c-0.196 2.55-1.805 4.818-4.826 6.804-3.021 1.986-5.877 2.7-8.567 2.143zM41.017 206.293l-12.784 8.402c0.287 0.78 0.682 1.553 1.186 2.32v0c1.452 2.209 3.225 3.482 5.318 3.817 2.093 0.336 4.323-0.275 6.69-1.83 2.367-1.556 3.658-3.276 3.873-5.16v0c0.136-1.316-0.237-2.645-1.119-3.987-0.882-1.341-1.936-2.529-3.164-3.562z" fill="#000000" data-fill-palette-color="primary"></path><path d="M53.82 244.099c-1.259 0.009-2.434-0.211-3.525-0.661-1.091-0.45-1.934-0.93-2.528-1.441-0.595-0.511-1.162-1.031-1.7-1.561-0.538-0.53-1.077-1.156-1.616-1.877v0l-7.102 7.205-2.016-1.702 20.567-20.868c0.555 0.282 1.403 0.72 2.542 1.313 1.139 0.593 2.204 1.377 3.193 2.352 0.99 0.975 1.764 1.9 2.324 2.773 0.56 0.874 0.92 1.844 1.08 2.911v0c0.343 2.535-0.755 5.09-3.292 7.664-2.538 2.575-5.18 3.872-7.927 3.892zM56.637 226.194l-10.738 10.895c0.444 0.703 0.992 1.376 1.646 2.019v0c1.883 1.856 3.883 2.728 6 2.618 2.117-0.111 4.169-1.175 6.158-3.192 1.988-2.018 2.89-3.97 2.704-5.858v0c-0.143-1.315-0.786-2.536-1.929-3.663-1.143-1.127-2.424-2.067-3.841-2.819z" fill="#000000" data-fill-palette-color="primary"></path><path d="M82.859 266.536l1.451-7.815-10.778-6.261-6 5.173-2.274-1.322 23.082-19.352 2.134 1.24-5.06 29.821zM87.74 240.168l-12.596 10.888 9.553 5.549z" fill="#000000" data-fill-palette-color="primary"></path><path d="M102.753 271.486v0c0.503 0.382 1.373 0.764 2.61 1.148 1.237 0.383 2.99 0.375 5.261-0.024v0l4.848-15.656 2.572 0.585-6.045 19.522-2.513-0.778 0.647-2.088c-2.362 0.878-4.535 1.01-6.52 0.396v0c-2.474-0.766-4.038-2.055-4.691-3.867v0c-0.344-0.897-0.316-1.99 0.083-3.279v0l4.406-14.226 2.572 0.585-4.261 13.762c-0.495 1.598-0.151 2.905 1.031 3.92z" fill="#000000" data-fill-palette-color="primary"></path><path d="M135.312 277.273l0.264 2.223c-0.532 0.434-1.429 0.588-2.69 0.461v0c-1.772-0.179-2.92-0.755-3.446-1.73v0c-0.947-1.099-1.335-2.494-1.164-4.185v0l1.249-12.401-2.255-0.227 0.598-2.299 1.892 0.19 0.402-3.986 2.642 0.022-0.426 4.228 4.67 0.471-0.235 2.335-4.671-0.471-1.314 13.046c-0.157 1.557 0.57 2.416 2.18 2.579v0c0.698 0.07 1.466-0.015 2.304-0.256z" fill="#000000" data-fill-palette-color="primary"></path><path d="M147.135 274.908v0c-0.594-1.249-0.965-2.734-1.111-4.454v0c-0.282-3.306 0.423-5.986 2.116-8.04 1.693-2.054 3.937-3.2 6.733-3.438v0c4.382-0.374 7.409 1.154 9.083 4.585v0c0.621 1.247 1.005 2.73 1.152 4.451v0c0.282 3.306-0.423 5.986-2.116 8.04-1.693 2.054-3.937 3.2-6.733 3.438v0c-4.382 0.374-7.423-1.153-9.124-4.582zM148.621 269.948c0.211 2.473 1.013 4.334 2.406 5.582 1.393 1.248 3.097 1.787 5.113 1.614 2.016-0.172 3.635-1.035 4.856-2.587 1.221-1.553 1.726-3.566 1.515-6.039-0.211-2.473-1.006-4.334-2.386-5.584-1.379-1.25-3.084-1.788-5.113-1.614-2.03 0.173-3.655 1.036-4.876 2.589-1.221 1.553-1.726 3.566-1.515 6.039z" fill="#000000" data-fill-palette-color="primary"></path><path d="M183.304 273.991l-2.618 0.848-8.723-26.952 5.583-1.806c3.157-1.022 5.604-1.261 7.339-0.717v0c2.017 0.623 3.478 2.334 4.383 5.132v0c1.512 4.672 0.637 8.102-2.624 10.292v0c-1.047 0.708-2.302 1.298-3.765 1.771v0l-2.964 0.96zM178.039 248.261l-2.772 0.897 3.962 12.243 2.772-0.897c2.31-0.748 3.872-1.813 4.687-3.197 0.814-1.384 0.849-3.224 0.106-5.521-0.744-2.297-1.811-3.646-3.203-4.046-1.391-0.4-3.242-0.227-5.552 0.52z" fill="#000000" data-fill-palette-color="primary"></path><path d="M202.696 255.172l0.321 0.562c2.354 4.123 5.5 5.061 9.435 2.814v0c1.663-0.95 3.059-2.042 4.188-3.277v0c0.285-0.318 0.477-0.552 0.577-0.702v0l1.591 1.561c-0.539 0.96-1.826 2.161-3.861 3.603v0c-0.582 0.395-1.213 0.786-1.893 1.174v0c-1.968 1.124-3.889 1.568-5.763 1.334v0c-2.567-0.305-4.739-2.016-6.519-5.132-1.779-3.116-2.333-5.976-1.661-8.582 0.672-2.605 2.167-4.57 4.487-5.894 2.319-1.324 4.493-1.571 6.521-0.74v0c1.573 0.686 2.921 2.014 4.044 3.981v0c0.268 0.469 0.525 0.974 0.773 1.516v0l-12.546 7.164c0.084 0.201 0.186 0.407 0.306 0.618zM204.983 244.732v0c-1.453 0.829-2.443 1.978-2.973 3.445-0.529 1.467-0.598 3.006-0.207 4.615v0l10.226-5.839c-1.602-2.534-3.472-3.47-5.61-2.808v0c-0.489 0.124-0.967 0.319-1.436 0.587z" fill="#000000" data-fill-palette-color="primary"></path><path d="M231.553 229.79l-2.986-3.029c-1.058 0.477-2.019 1.102-2.883 1.876v0c-1.748 1.566-2.646 3.385-2.692 5.455-0.047 2.07 0.848 4.13 2.684 6.18v0c3.205 3.577 6.465 3.88 9.78 0.909v0c1.326-1.188 2.494-2.633 3.505-4.335v0c0.209-0.332 0.326-0.546 0.35-0.64v0l1.941 1.195c-0.325 1.052-1.331 2.497-3.018 4.334v0c-0.486 0.508-1.021 1.023-1.603 1.545v0c-1.708 1.53-3.493 2.369-5.354 2.515v0c-2.591 0.221-5.084-1.005-7.479-3.677-2.394-2.672-3.517-5.371-3.368-8.094 0.149-2.724 1.359-5.103 3.63-7.138v0c0.723-0.648 1.577-1.241 2.563-1.779 0.985-0.538 1.878-0.804 2.68-0.799v0l3.538 3.948z" fill="#000000" data-fill-palette-color="primary"></path><path d="M237.925 218.099l-1.999-0.555c0.555-3.234 1.452-5.769 2.69-7.605v0c1.033-1.417 2.012-2.381 2.935-2.893 0.924-0.512 1.882-0.773 2.875-0.784 0.993-0.011 2.067 0.405 3.223 1.248v0l11.706 8.535-1.549 2.125-1.243-0.906c-1.262 3.654-2.203 5.906-2.823 6.757v0c-0.032 0.044-0.056 0.076-0.071 0.098v0c-1.43 1.962-3.007 2.866-4.731 2.711v0c-0.627-0.056-1.159-0.219-1.597-0.488-0.438-0.269-0.799-0.507-1.082-0.714v0c-0.785-0.572-1.265-1.39-1.442-2.454-0.176-1.063-0.064-2.1 0.338-3.108v0c0.678-1.709 2.116-4.367 4.312-7.975v0l-2.649-1.931c-2.376-1.732-4.47-1.356-6.282 1.129v0c-1.271 1.744-2.142 4.014-2.611 6.81zM247.975 223.824v0c1.57 1.144 3.141 0.637 4.714-1.521v0c1.256-1.722 2.133-3.704 2.631-5.945v0l-4.676-3.409c-2 3.75-3.163 6.124-3.489 7.122v0c-0.565 1.691-0.292 2.942 0.82 3.753z" fill="#000000" data-fill-palette-color="primary"></path><path d="M252.798 185.043l1.786 1.538c-0.701 0.746-1.402 1.879-2.103 3.397-0.701 1.519-0.974 2.819-0.82 3.901 0.154 1.082 0.63 1.806 1.426 2.173 0.796 0.367 1.491 0.391 2.084 0.071 0.594-0.32 1.189-0.789 1.785-1.405 0.596-0.616 1.218-1.302 1.864-2.059 0.646-0.756 1.335-1.412 2.066-1.965v0c1.673-1.308 3.38-1.56 5.119-0.758 1.739 0.803 2.8 2.013 3.183 3.631 0.382 1.618 0.048 3.566-1.004 5.844v0c-0.531 1.151-1.159 2.206-1.884 3.164-0.725 0.958-1.425 1.623-2.102 1.994v0l-1.574-1.707c0.75-0.337 1.631-1.312 2.643-2.926v0c0.322-0.505 0.613-1.039 0.873-1.602v0c0.588-1.274 0.816-2.461 0.686-3.562-0.131-1.1-0.735-1.899-1.813-2.396v0c-0.735-0.339-1.424-0.36-2.066-0.063-0.643 0.298-1.274 0.749-1.895 1.354-0.621 0.605-1.242 1.291-1.864 2.059-0.622 0.768-1.28 1.437-1.975 2.008-0.694 0.571-1.442 0.968-2.244 1.193-0.802 0.224-1.693 0.11-2.672-0.342v0c-1.592-0.735-2.583-1.935-2.974-3.601-0.39-1.666-0.11-3.527 0.84-5.585v0c0.237-0.514 0.511-1.027 0.821-1.538 0.31-0.511 0.591-0.975 0.844-1.393v0z" fill="#000000" data-fill-palette-color="primary"></path><path d="M11.974 141.763c0-1.793 1.453-3.246 3.247-3.246 1.793 0 3.246 1.453 3.246 3.246 0 1.793-1.453 3.246-3.246 3.247-1.793 0-3.246-1.453-3.247-3.247z" fill="#000000" data-fill-palette-color="primary"></path><path d="M266.929 141.763c0-1.793 1.453-3.246 3.246-3.246 1.793 0 3.246 1.453 3.247 3.246 0 1.793-1.453 3.246-3.247 3.247-1.793 0-3.246-1.453-3.246-3.247z" fill="#000000" data-fill-palette-color="primary"></path></g></svg></g></svg></g></svg></g></svg></g><defs></defs></svg><rect width="280" height="280" fill="none" stroke="none" visibility="hidden"></rect></g></svg></g></svg>