<svg xmlns="http://www.w3.org/2000/svg" version="1.1" xmlns:xlink="http://www.w3.org/1999/xlink" xmlns:svgjs="http://svgjs.dev/svgjs" width="1500" height="1500" viewBox="0 0 1500 1500"><rect width="1500" height="1500" fill="#99592a"></rect><g transform="matrix(0.6666666666666666,0,0,0.6666666666666666,249.39393939393938,438.58569500674764)"><svg viewBox="0 0 396 247" data-background-color="#99592a" preserveAspectRatio="xMidYMid meet" height="935" width="1500" xmlns="http://www.w3.org/2000/svg" xmlns:xlink="http://www.w3.org/1999/xlink"><g id="tight-bounds" transform="matrix(1,0,0,1,0.2400000000000091,-0.09999999999999432)"><svg viewBox="0 0 395.52 247.2" height="247.2" width="395.52"><g><svg></svg></g><g><svg viewBox="0 0 395.52 247.2" height="247.2" width="395.52"><g transform="matrix(1,0,0,1,98.63795275659194,47.215199999999996)"><svg viewBox="0 0 198.2440944868161 152.7696" height="152.7696" width="198.2440944868161"><g><svg viewBox="0 0 245.65351679999995 189.30394671920496" height="152.7696" width="198.2440944868161"><g><rect width="245.65351679999995" height="4.172690203368494" x="0" y="105.65856687721137" fill="#ffffff" opacity="1" stroke-width="0" stroke="transparent" fill-opacity="1" class="rect-qz-0" data-fill-palette-color="secondary" rx="1%" id="qz-0" data-palette-color="#ffffff"></rect></g><g transform="matrix(1,0,0,1,0.6110783999999825,120.75452986426701)"><svg viewBox="0 0 244.43135999999998 68.54941685493793" height="68.54941685493793" width="244.43135999999998"><g id="textblocktransform"><svg viewBox="0 0 244.43135999999998 68.54941685493793" height="68.54941685493793" width="244.43135999999998" id="textblock"><g><svg viewBox="0 0 244.43135999999998 46.270153610223645" height="46.270153610223645" width="244.43135999999998"><g transform="matrix(1,0,0,1,0,0)"><svg width="244.43135999999998" viewBox="4.5 -35.1 187.78 35.550000000000004" height="46.270153610223645" data-palette-color="#ffffff"><path d="M20.35-3.35L20.65-3 20.3 0 4.5 0 4.75-9.65 4.5-32.05 8.6-32.05 8.35-10 8.5-3.35 20.35-3.35ZM24.85 0L25.05-9.7 24.9-22.65 28.75-23 28.65-10.05 28.75 0 24.85 0ZM26.9-33.15Q27.9-33.15 28.5-32.55 29.1-31.95 29.1-30.9L29.1-30.9Q29.1-29.8 28.47-29.15 27.85-28.5 26.75-28.5L26.75-28.5Q25.7-28.5 25.12-29.1 24.55-29.7 24.55-30.8L24.55-30.8Q24.55-31.85 25.17-32.5 25.8-33.15 26.9-33.15L26.9-33.15ZM51.09 0L51.34-15.55Q51.4-17.6 50.4-18.75 49.4-19.9 47.45-19.9L47.45-19.9Q44.3-19.9 40.65-16.35L40.65-16.35 40.65-10.05 40.85 0 36.9 0 37.15-9.7 36.95-22.65 40.7-23 40.7-19.65 41-19.65Q44.1-22.4 47.35-23.2L47.35-23.2Q51.09-23.2 53.07-21.45 55.05-19.7 55-16.45L55-16.45 54.9-9.95 55.1 0 51.09 0ZM78.84-11.65L64.49-11.6 64.49-11.5Q64.49-7.3 66.39-5.05 68.29-2.8 71.79-2.8L71.79-2.8Q73.54-2.8 75.29-3.38 77.04-3.95 78.49-5L78.49-5 78.89-4.7 78.29-1.3Q74.79 0.4 71.29 0.4L71.29 0.4Q66.39 0.4 63.59-2.73 60.79-5.85 60.79-11.3L60.79-11.3Q60.79-16.8 63.59-20.05 66.39-23.3 71.14-23.3L71.14-23.3Q75.14-23.3 77.34-21.03 79.54-18.75 79.54-14.7L79.54-14.7Q79.54-13.35 79.34-12.15L79.34-12.15 78.84-11.65ZM71.14-20.5Q68.64-20.5 66.97-18.88 65.29-17.25 64.74-14.3L64.74-14.3 75.79-14.5 75.89-15.2Q75.89-17.75 74.67-19.13 73.44-20.5 71.14-20.5L71.14-20.5ZM97.84-32.3Q102.89-32.3 106.59-29.9L106.59-29.9 105.79-26.25 105.34-26.15Q101.99-28.95 97.64-28.95L97.64-28.95Q92.89-28.95 90.34-25.68 87.79-22.4 87.79-16.1L87.79-16.1Q87.79-9.75 90.34-6.4 92.89-3.05 97.54-3.05L97.54-3.05Q99.74-3.05 101.92-3.85 104.09-4.65 105.89-6.1L105.89-6.1 106.39-5.85 106.04-2.05Q101.69 0.35 97.19 0.35L97.19 0.35Q90.74 0.35 87.19-3.83 83.64-8 83.64-15.75L83.64-15.75Q83.64-23.7 87.34-28 91.04-32.3 97.84-32.3L97.84-32.3ZM119.29-23.3Q122.54-23.3 124.41-21.7 126.29-20.1 126.29-17.3L126.29-17.3Q126.29-16.45 125.99-11.15L125.99-11.15Q125.69-5.85 125.69-4.95L125.69-4.95Q125.69-3.85 126.04-3.43 126.39-3 127.24-3L127.24-3Q127.99-3 128.94-3.3L128.94-3.3 129.34-2.95 128.94-0.7Q127.49 0.15 126.09 0.3L126.09 0.3Q124.54 0.15 123.61-0.8 122.69-1.75 122.64-3.4L122.64-3.4 122.29-3.4Q119.59-0.65 116.94 0.35L116.94 0.35Q113.59 0.35 111.71-1.33 109.84-3 109.84-5.9L109.84-5.9Q109.84-8.1 111.01-9.4 112.19-10.7 114.49-11.25L114.49-11.25 122.59-13.15 122.64-16.4Q122.64-18.35 121.61-19.4 120.59-20.45 118.69-20.45L118.69-20.45Q116.99-20.45 115.29-19.65 113.59-18.85 111.64-17.15L111.64-17.15 111.24-17.35 110.74-20.2Q114.89-23.3 119.29-23.3L119.29-23.3ZM122.54-10.6L115.29-8.85Q114.29-8.55 113.84-8.03 113.39-7.5 113.39-6.45L113.39-6.45Q113.39-4.8 114.31-3.88 115.24-2.95 116.79-2.95L116.79-2.95Q119.54-2.95 122.39-6.5L122.39-6.5 122.54-10.6ZM139.03-35.1L138.74-10.05 138.99 0 135.03 0 135.34-9.75 135.09-34.75 139.03-35.1ZM152.64-22.9L143.64-12.4Q147.09-7.75 153.24-0.7L153.24-0.7 153.24-0.25Q152.29 0.05 151.16 0.23 150.04 0.4 149.69 0.45L149.69 0.45 149.19 0.25Q143.53-6.45 139.69-12.05L139.69-12.05 139.69-12.4 146.84-20.85 148.14-22.9 152.64-22.9ZM172.98-11.65L158.63-11.6 158.63-11.5Q158.63-7.3 160.53-5.05 162.43-2.8 165.93-2.8L165.93-2.8Q167.68-2.8 169.43-3.38 171.18-3.95 172.63-5L172.63-5 173.03-4.7 172.43-1.3Q168.93 0.4 165.43 0.4L165.43 0.4Q160.53 0.4 157.73-2.73 154.93-5.85 154.93-11.3L154.93-11.3Q154.93-16.8 157.73-20.05 160.53-23.3 165.28-23.3L165.28-23.3Q169.28-23.3 171.48-21.03 173.68-18.75 173.68-14.7L173.68-14.7Q173.68-13.35 173.48-12.15L173.48-12.15 172.98-11.65ZM165.28-20.5Q162.78-20.5 161.11-18.88 159.43-17.25 158.88-14.3L158.88-14.3 169.93-14.5 170.03-15.2Q170.03-17.75 168.81-19.13 167.58-20.5 165.28-20.5L165.28-20.5ZM186.13-23.25Q188.98-23.25 191.63-22.15L191.63-22.15 191.08-18.9 190.48-18.75Q187.98-20.4 185.68-20.4L185.68-20.4Q183.98-20.4 182.93-19.45 181.88-18.5 181.88-17.15L181.88-17.15Q181.88-15.8 182.96-14.98 184.03-14.15 186.28-13.1L186.28-13.1Q188.23-12.2 189.41-11.48 190.58-10.75 191.43-9.55 192.28-8.35 192.28-6.6L192.28-6.6Q192.28-4.75 191.33-3.15 190.38-1.55 188.53-0.58 186.68 0.4 184.13 0.4L184.13 0.4Q180.63 0.4 177.48-1.25L177.48-1.25 177.98-4.65 178.43-4.95Q179.83-3.75 181.46-3.1 183.08-2.45 184.53-2.45L184.53-2.45Q186.38-2.45 187.53-3.48 188.68-4.5 188.68-5.9L188.68-5.9Q188.68-7.25 187.61-8.08 186.53-8.9 184.28-9.95L184.28-9.95Q182.33-10.85 181.13-11.58 179.93-12.3 179.08-13.55 178.23-14.8 178.23-16.65L178.23-16.65Q178.23-19.55 180.36-21.4 182.48-23.25 186.13-23.25L186.13-23.25Z" opacity="1" transform="matrix(1,0,0,1,0,0)" fill="#ffffff" class="wordmark-text-0" data-fill-palette-color="primary" id="text-0"></path></svg></g></svg></g><g transform="matrix(1,0,0,1,46.68638976,57.1934263939108)"><svg viewBox="0 0 151.05858048 11.355990461027138" height="11.355990461027138" width="151.05858048"><g transform="matrix(1,0,0,1,0,0)"><svg width="151.05858048" viewBox="3.8 -36.5 631.7900000000001 47.5" height="11.355990461027138" data-palette-color="#ffffff"><path d="M23.1 0L3.8 0 3.8-35 22.8-35Q25.45-35 27.45-33.83 29.45-32.65 30.6-30.65 31.75-28.65 31.75-26.1L31.75-26.1Q31.75-24.35 31.03-22.73 30.3-21.1 29-19.9 27.7-18.7 25.9-18.1L25.9-18.1Q27.95-17.6 29.45-16.3 30.95-15 31.83-13.2 32.7-11.4 32.7-9.3L32.7-9.3Q32.7-6.7 31.5-4.6 30.3-2.5 28.18-1.25 26.05 0 23.1 0L23.1 0ZM8.6-15.8L8.6-4.25 22-4.25Q23.85-4.25 25.15-5.08 26.45-5.9 27.18-7.23 27.9-8.55 27.9-10.05L27.9-10.05Q27.9-11.6 27.15-12.88 26.4-14.15 25.05-14.98 23.7-15.8 21.85-15.8L21.85-15.8 8.6-15.8ZM8.6-30.75L8.6-19.85 21.15-19.85Q22.9-19.85 24.23-20.63 25.55-21.4 26.28-22.68 27-23.95 27-25.35L27-25.35Q27-26.8 26.3-28.03 25.6-29.25 24.35-30 23.1-30.75 21.45-30.75L21.45-30.75 8.6-30.75ZM50.45 0.6L50.45 0.6Q46.55 0.6 43.55-1.18 40.55-2.95 38.8-5.98 37.05-9 37.05-12.75L37.05-12.75Q37.05-16.5 38.8-19.53 40.55-22.55 43.55-24.33 46.55-26.1 50.45-26.1L50.45-26.1Q54.35-26.1 57.37-24.33 60.4-22.55 62.12-19.53 63.85-16.5 63.85-12.75L63.85-12.75Q63.85-9 62.12-5.98 60.4-2.95 57.37-1.18 54.35 0.6 50.45 0.6ZM50.45-3.35L50.45-3.35Q53.1-3.35 55.05-4.6 57-5.85 58.1-7.98 59.2-10.1 59.2-12.75L59.2-12.75Q59.2-15.4 58.1-17.53 57-19.65 55.05-20.9 53.1-22.15 50.45-22.15L50.45-22.15Q47.85-22.15 45.87-20.9 43.9-19.65 42.8-17.53 41.7-15.4 41.7-12.75L41.7-12.75Q41.7-10.1 42.8-7.98 43.9-5.85 45.87-4.6 47.85-3.35 50.45-3.35ZM74.35 0L69.75 0 69.75-36.5 74.35-36.5 74.35 0ZM93.64 0.6L93.64 0.6Q89.74 0.6 86.74-1.18 83.74-2.95 81.99-5.98 80.24-9 80.24-12.75L80.24-12.75Q80.24-16.5 81.99-19.53 83.74-22.55 86.74-24.33 89.74-26.1 93.64-26.1L93.64-26.1Q97.54-26.1 100.57-24.33 103.59-22.55 105.32-19.53 107.04-16.5 107.04-12.75L107.04-12.75Q107.04-9 105.32-5.98 103.59-2.95 100.57-1.18 97.54 0.6 93.64 0.6ZM93.64-3.35L93.64-3.35Q96.29-3.35 98.24-4.6 100.19-5.85 101.29-7.98 102.39-10.1 102.39-12.75L102.39-12.75Q102.39-15.4 101.29-17.53 100.19-19.65 98.24-20.9 96.29-22.15 93.64-22.15L93.64-22.15Q91.04-22.15 89.07-20.9 87.09-19.65 85.99-17.53 84.89-15.4 84.89-12.75L84.89-12.75Q84.89-10.1 85.99-7.98 87.09-5.85 89.07-4.6 91.04-3.35 93.64-3.35ZM125.34 0L112.59 0 112.59-3.95 124.79-3.95Q125.99-3.95 126.87-4.48 127.74-5 128.19-5.85 128.64-6.7 128.64-7.65L128.64-7.65Q128.64-8.55 128.24-9.33 127.84-10.1 127.02-10.58 126.19-11.05 125.04-11.05L125.04-11.05 119.89-11.05Q117.44-11.05 115.62-11.88 113.79-12.7 112.77-14.3 111.74-15.9 111.74-18.2L111.74-18.2Q111.74-20.15 112.69-21.8 113.64-23.45 115.34-24.48 117.04-25.5 119.24-25.5L119.24-25.5 130.99-25.5 130.99-21.55 119.69-21.55Q118.14-21.55 117.24-20.6 116.34-19.65 116.34-18.35L116.34-18.35Q116.34-17.1 117.27-16.18 118.19-15.25 119.89-15.25L119.89-15.25 124.79-15.25Q127.54-15.25 129.42-14.38 131.29-13.5 132.27-11.85 133.24-10.2 133.24-7.8L133.24-7.8Q133.24-5.75 132.24-3.98 131.24-2.2 129.47-1.1 127.69 0 125.34 0L125.34 0ZM141.44 7.5L137.54 7.5 139.79 0.3Q138.69-0.05 138.11-0.98 137.54-1.9 137.54-2.85L137.54-2.85Q137.54-4.25 138.51-5.18 139.49-6.1 140.84-6.1L140.84-6.1Q142.34-6.1 143.24-5.1 144.14-4.1 144.14-2.7L144.14-2.7Q144.14-1.75 143.99-0.93 143.84-0.1 143.44 0.95L143.44 0.95 141.44 7.5ZM174.28 0L163.08 0 163.08-35 174.28-35Q179.88-35 183.96-32.75 188.03-30.5 190.28-26.55 192.53-22.6 192.53-17.5L192.53-17.5Q192.53-12.4 190.28-8.45 188.03-4.5 183.96-2.25 179.88 0 174.28 0L174.28 0ZM167.88-30.75L167.88-4.25 174.33-4.25Q178.23-4.25 181.26-5.85 184.28-7.45 186.03-10.43 187.78-13.4 187.78-17.5L187.78-17.5Q187.78-21.65 186.03-24.6 184.28-27.55 181.26-29.15 178.23-30.75 174.33-30.75L174.33-30.75 167.88-30.75ZM210.28 0.6L210.28 0.6Q206.38 0.6 203.38-1.18 200.38-2.95 198.63-5.98 196.88-9 196.88-12.75L196.88-12.75Q196.88-16.5 198.63-19.53 200.38-22.55 203.38-24.33 206.38-26.1 210.28-26.1L210.28-26.1Q214.18-26.1 217.21-24.33 220.23-22.55 221.96-19.53 223.68-16.5 223.68-12.75L223.68-12.75Q223.68-9 221.96-5.98 220.23-2.95 217.21-1.18 214.18 0.6 210.28 0.6ZM210.28-3.35L210.28-3.35Q212.93-3.35 214.88-4.6 216.83-5.85 217.93-7.98 219.03-10.1 219.03-12.75L219.03-12.75Q219.03-15.4 217.93-17.53 216.83-19.65 214.88-20.9 212.93-22.15 210.28-22.15L210.28-22.15Q207.68-22.15 205.71-20.9 203.73-19.65 202.63-17.53 201.53-15.4 201.53-12.75L201.53-12.75Q201.53-10.1 202.63-7.98 203.73-5.85 205.71-4.6 207.68-3.35 210.28-3.35ZM244.93 0L241.93 0Q237.98 0 234.88-1.7 231.78-3.4 229.98-6.28 228.18-9.15 228.18-12.75L228.18-12.75Q228.18-16.35 229.98-19.23 231.78-22.1 234.88-23.8 237.98-25.5 241.93-25.5L241.93-25.5 244.93-25.5 244.93-21.55 241.78-21.55Q239.23-21.55 237.2-20.38 235.18-19.2 234-17.2 232.83-15.2 232.83-12.75L232.83-12.75Q232.83-10.3 234-8.3 235.18-6.3 237.2-5.13 239.23-3.95 241.78-3.95L241.78-3.95 244.93-3.95 244.93 0ZM269.68 0L263.13 0Q258.93 0 255.68-1.58 252.43-3.15 250.6-6.03 248.78-8.9 248.78-12.75L248.78-12.75Q248.78-16.55 250.33-19.58 251.88-22.6 254.63-24.35 257.38-26.1 261.03-26.1L261.03-26.1Q264.98-26.1 267.6-24.4 270.23-22.7 271.53-19.83 272.83-16.95 272.83-13.4L272.83-13.4Q272.83-12.85 272.8-12.25 272.78-11.65 272.68-11.2L272.68-11.2 253.68-11.2Q253.93-8.85 255.23-7.23 256.53-5.6 258.55-4.78 260.58-3.95 263.03-3.95L263.03-3.95 269.68-3.95 269.68 0ZM253.63-14.45L253.63-14.45 268.18-14.45Q268.18-15.4 267.98-16.48 267.78-17.55 267.28-18.57 266.78-19.6 265.95-20.43 265.13-21.25 263.9-21.75 262.68-22.25 261.03-22.25L261.03-22.25Q259.28-22.25 257.95-21.58 256.63-20.9 255.68-19.78 254.73-18.65 254.23-17.25 253.73-15.85 253.63-14.45ZM291.07 0L278.32 0 278.32-3.95 290.52-3.95Q291.72-3.95 292.6-4.48 293.47-5 293.92-5.85 294.37-6.7 294.37-7.65L294.37-7.65Q294.37-8.55 293.97-9.33 293.57-10.1 292.75-10.58 291.92-11.05 290.77-11.05L290.77-11.05 285.62-11.05Q283.17-11.05 281.35-11.88 279.52-12.7 278.5-14.3 277.47-15.9 277.47-18.2L277.47-18.2Q277.47-20.15 278.42-21.8 279.37-23.45 281.07-24.48 282.77-25.5 284.97-25.5L284.97-25.5 296.72-25.5 296.72-21.55 285.42-21.55Q283.87-21.55 282.97-20.6 282.07-19.65 282.07-18.35L282.07-18.35Q282.07-17.1 283-16.18 283.92-15.25 285.62-15.25L285.62-15.25 290.52-15.25Q293.27-15.25 295.15-14.38 297.02-13.5 298-11.85 298.97-10.2 298.97-7.8L298.97-7.8Q298.97-5.75 297.97-3.98 296.97-2.2 295.2-1.1 293.42 0 291.07 0L291.07 0ZM337.77 0L331.22 0Q327.02 0 323.77-1.58 320.52-3.15 318.69-6.03 316.87-8.9 316.87-12.75L316.87-12.75Q316.87-16.55 318.42-19.58 319.97-22.6 322.72-24.35 325.47-26.1 329.12-26.1L329.12-26.1Q333.07-26.1 335.69-24.4 338.32-22.7 339.62-19.83 340.92-16.95 340.92-13.4L340.92-13.4Q340.92-12.85 340.89-12.25 340.87-11.65 340.77-11.2L340.77-11.2 321.77-11.2Q322.02-8.85 323.32-7.23 324.62-5.6 326.64-4.78 328.67-3.95 331.12-3.95L331.12-3.95 337.77-3.95 337.77 0ZM321.72-14.45L321.72-14.45 336.27-14.45Q336.27-15.4 336.07-16.48 335.87-17.55 335.37-18.57 334.87-19.6 334.04-20.43 333.22-21.25 331.99-21.75 330.77-22.25 329.12-22.25L329.12-22.25Q327.37-22.25 326.04-21.58 324.72-20.9 323.77-19.78 322.82-18.65 322.32-17.25 321.82-15.85 321.72-14.45ZM386.01 11L386.01 11Q383.51 11 381.59 10.03 379.66 9.05 378.56 7.15 377.46 5.25 377.46 2.6L377.46 2.6Q377.46 1.95 377.51 1.28 377.56 0.6 377.66-0.1L377.66-0.1Q373.56 0.15 370.06-1.05 366.56-2.25 363.96-4.63 361.36-7 359.91-10.38 358.46-13.75 358.46-17.8L358.46-17.8Q358.46-21.5 359.71-24.73 360.96-27.95 363.31-30.4 365.66-32.85 368.99-34.23 372.31-35.6 376.36-35.6L376.36-35.6Q380.41-35.6 383.71-34.25 387.01-32.9 389.36-30.48 391.71-28.05 392.99-24.9 394.26-21.75 394.26-18.1L394.26-18.1 394.26 2.05Q394.26 4.75 393.26 6.78 392.26 8.8 390.44 9.9 388.61 11 386.01 11ZM385.71 6.7L385.71 6.7Q387.36 6.7 388.41 5.53 389.46 4.35 389.46 2.15L389.46 2.15 389.46-9.75Q386.91-8.1 385.41-6.4 383.91-4.7 383.19-3.1 382.46-1.5 382.24-0.15 382.01 1.2 382.01 2.1L382.01 2.1Q382.01 3.55 382.54 4.58 383.06 5.6 383.91 6.15 384.76 6.7 385.71 6.7ZM376.36-4.2L376.36-4.2Q377.16-4.2 377.86-4.28 378.56-4.35 379.36-4.55L379.36-4.55Q380.06-6.25 381.34-8 382.61-9.75 384.59-11.48 386.56-13.2 389.46-14.7L389.46-14.7 389.46-18.1Q389.46-20.95 388.49-23.38 387.51-25.8 385.74-27.58 383.96-29.35 381.56-30.38 379.16-31.4 376.36-31.4L376.36-31.4Q373.51-31.4 371.14-30.38 368.76-29.35 366.99-27.5 365.21-25.65 364.24-23.18 363.26-20.7 363.26-17.8L363.26-17.8Q363.26-14.9 364.24-12.43 365.21-9.95 366.99-8.1 368.76-6.25 371.14-5.23 373.51-4.2 376.36-4.2ZM413.11 0.6L413.11 0.6Q409.21 0.6 406.21-1.18 403.21-2.95 401.46-5.98 399.71-9 399.71-12.75L399.71-12.75Q399.71-16.5 401.46-19.53 403.21-22.55 406.21-24.33 409.21-26.1 413.11-26.1L413.11-26.1Q417.01-26.1 420.04-24.33 423.06-22.55 424.79-19.53 426.51-16.5 426.51-12.75L426.51-12.75Q426.51-9 424.79-5.98 423.06-2.95 420.04-1.18 417.01 0.6 413.11 0.6ZM413.11-3.35L413.11-3.35Q415.76-3.35 417.71-4.6 419.66-5.85 420.76-7.98 421.86-10.1 421.86-12.75L421.86-12.75Q421.86-15.4 420.76-17.53 419.66-19.65 417.71-20.9 415.76-22.15 413.11-22.15L413.11-22.15Q410.51-22.15 408.54-20.9 406.56-19.65 405.46-17.53 404.36-15.4 404.36-12.75L404.36-12.75Q404.36-10.1 405.46-7.98 406.56-5.85 408.54-4.6 410.51-3.35 413.11-3.35ZM444.81 0L432.06 0 432.06-3.95 444.26-3.95Q445.46-3.95 446.33-4.48 447.21-5 447.66-5.85 448.11-6.7 448.11-7.65L448.11-7.65Q448.11-8.55 447.71-9.33 447.31-10.1 446.48-10.58 445.66-11.05 444.51-11.05L444.51-11.05 439.36-11.05Q436.91-11.05 435.08-11.88 433.26-12.7 432.23-14.3 431.21-15.9 431.21-18.2L431.21-18.2Q431.21-20.15 432.16-21.8 433.11-23.45 434.81-24.48 436.51-25.5 438.71-25.5L438.71-25.5 450.46-25.5 450.46-21.55 439.16-21.55Q437.61-21.55 436.71-20.6 435.81-19.65 435.81-18.35L435.81-18.35Q435.81-17.1 436.73-16.18 437.66-15.25 439.36-15.25L439.36-15.25 444.26-15.25Q447.01-15.25 448.88-14.38 450.76-13.5 451.73-11.85 452.71-10.2 452.71-7.8L452.71-7.8Q452.71-5.75 451.71-3.98 450.71-2.2 448.93-1.1 447.16 0 444.81 0L444.81 0ZM472.71 0L466.71 0Q463.31 0 461.38-1.95 459.46-3.9 459.46-7.25L459.46-7.25 459.46-31.9 464.06-31.9 464.06-7.55Q464.06-5.9 464.98-4.93 465.91-3.95 467.56-3.95L467.56-3.95 472.71-3.95 472.71 0ZM472.81-21.55L455.06-21.55 455.06-25.5 472.81-25.5 472.81-21.55ZM489.55 0.6L489.55 0.6Q485.65 0.6 482.65-1.18 479.65-2.95 477.9-5.98 476.15-9 476.15-12.75L476.15-12.75Q476.15-16.5 477.9-19.53 479.65-22.55 482.65-24.33 485.65-26.1 489.55-26.1L489.55-26.1Q493.45-26.1 496.48-24.33 499.5-22.55 501.23-19.53 502.95-16.5 502.95-12.75L502.95-12.75Q502.95-9 501.23-5.98 499.5-2.95 496.48-1.18 493.45 0.6 489.55 0.6ZM489.55-3.35L489.55-3.35Q492.2-3.35 494.15-4.6 496.1-5.85 497.2-7.98 498.3-10.1 498.3-12.75L498.3-12.75Q498.3-15.4 497.2-17.53 496.1-19.65 494.15-20.9 492.2-22.15 489.55-22.15L489.55-22.15Q486.95-22.15 484.98-20.9 483-19.65 481.9-17.53 480.8-15.4 480.8-12.75L480.8-12.75Q480.8-10.1 481.9-7.98 483-5.85 484.98-4.6 486.95-3.35 489.55-3.35ZM521.25 0L508.5 0 508.5-3.95 520.7-3.95Q521.9-3.95 522.78-4.48 523.65-5 524.1-5.85 524.55-6.7 524.55-7.65L524.55-7.65Q524.55-8.55 524.15-9.33 523.75-10.1 522.93-10.58 522.1-11.05 520.95-11.05L520.95-11.05 515.8-11.05Q513.35-11.05 511.53-11.88 509.7-12.7 508.68-14.3 507.65-15.9 507.65-18.2L507.65-18.2Q507.65-20.15 508.6-21.8 509.55-23.45 511.25-24.48 512.95-25.5 515.15-25.5L515.15-25.5 526.9-25.5 526.9-21.55 515.6-21.55Q514.05-21.55 513.15-20.6 512.25-19.65 512.25-18.35L512.25-18.35Q512.25-17.1 513.18-16.18 514.1-15.25 515.8-15.25L515.8-15.25 520.7-15.25Q523.45-15.25 525.33-14.38 527.2-13.5 528.18-11.85 529.15-10.2 529.15-7.8L529.15-7.8Q529.15-5.75 528.15-3.98 527.15-2.2 525.38-1.1 523.6 0 521.25 0L521.25 0ZM547.15 0.6L547.15 0.6Q543.7 0.6 540.97-0.83 538.25-2.25 536.72-4.8 535.2-7.35 535.2-10.75L535.2-10.75 535.2-25.5 539.85-25.5 539.85-10.8Q539.85-8.5 540.85-6.83 541.85-5.15 543.52-4.25 545.2-3.35 547.1-3.35L547.1-3.35Q549.05-3.35 550.72-4.25 552.4-5.15 553.42-6.83 554.45-8.5 554.45-10.8L554.45-10.8 554.45-25.5 559.1-25.5 559.1-10.75Q559.1-7.35 557.55-4.8 556-2.25 553.3-0.83 550.6 0.6 547.15 0.6ZM570.85 0L566.25 0 566.25-18.25Q566.25-21.65 568.17-23.58 570.1-25.5 573.5-25.5L573.5-25.5 578.75-25.5 578.75-21.55 574.35-21.55Q572.7-21.55 571.77-20.6 570.85-19.65 570.85-17.95L570.85-17.95 570.85 0ZM593.59 0.6L593.59 0.6Q589.89 0.6 587.19-1.18 584.49-2.95 583.04-6 581.59-9.05 581.59-12.75L581.59-12.75Q581.59-16.5 583.19-19.53 584.79-22.55 587.79-24.33 590.79-26.1 594.99-26.1L594.99-26.1Q599.04-26.1 601.94-24.35 604.84-22.6 606.42-19.6 607.99-16.6 607.99-12.9L607.99-12.9 607.99 0 603.34 0 603.34-5.2 603.24-5.2Q602.49-3.75 601.22-2.43 599.94-1.1 598.04-0.25 596.14 0.6 593.59 0.6ZM594.79-3.35L594.79-3.35Q597.29-3.35 599.22-4.58 601.14-5.8 602.22-7.98 603.29-10.15 603.29-12.85L603.29-12.85Q603.29-15.5 602.27-17.6 601.24-19.7 599.34-20.93 597.44-22.15 594.89-22.15L594.89-22.15Q592.19-22.15 590.27-20.9 588.34-19.65 587.32-17.53 586.29-15.4 586.29-12.7L586.29-12.7Q586.29-10.1 587.29-7.98 588.29-5.85 590.19-4.6 592.09-3.35 594.79-3.35ZM627.69 0L614.94 0 614.94-3.95 627.14-3.95Q628.34-3.95 629.22-4.48 630.09-5 630.54-5.85 630.99-6.7 630.99-7.65L630.99-7.65Q630.99-8.55 630.59-9.33 630.19-10.1 629.37-10.58 628.54-11.05 627.39-11.05L627.39-11.05 622.24-11.05Q619.79-11.05 617.97-11.88 616.14-12.7 615.12-14.3 614.09-15.9 614.09-18.2L614.09-18.2Q614.09-20.15 615.04-21.8 615.99-23.45 617.69-24.48 619.39-25.5 621.59-25.5L621.59-25.5 633.34-25.5 633.34-21.55 622.04-21.55Q620.49-21.55 619.59-20.6 618.69-19.65 618.69-18.35L618.69-18.35Q618.69-17.1 619.62-16.18 620.54-15.25 622.24-15.25L622.24-15.25 627.14-15.25Q629.89-15.25 631.76-14.38 633.64-13.5 634.62-11.85 635.59-10.2 635.59-7.8L635.59-7.8Q635.59-5.75 634.59-3.98 633.59-2.2 631.81-1.1 630.04 0 627.69 0L627.69 0Z" opacity="1" transform="matrix(1,0,0,1,0,0)" fill="#ffffff" class="slogan-text-1" data-fill-palette-color="secondary" id="text-1"></path></svg></g></svg></g></svg></g></svg></g><g transform="matrix(1,0,0,1,66.35934760016008,0)"><svg viewBox="0 0 112.93482159967978 94.73529409352422" height="94.73529409352422" width="112.93482159967978"><g><svg xmlns="http://www.w3.org/2000/svg" xmlns:xlink="http://www.w3.org/1999/xlink" version="1.1" x="8" y="0" viewBox="8.75 8.972999999999999 87.833 85.84" enable-background="new 2.667 2.667 100 100" xml:space="preserve" height="94.73529409352422" width="96.93482159967978" class="icon-icon-0" data-fill-palette-color="accent" id="icon-0"><g display="none" fill="#ffffff" data-fill-palette-color="accent"><path display="inline" fill="#ffffff" d="M12.5 42.499c0 0.213 0 1.562 0 8.501h81c0-6.938 0-8.288 0-8.501H12.5z" data-fill-palette-color="accent"></path><path display="inline" fill="#ffffff" d="M67.217 91.545C91.311 85.586 93.318 64.261 93.484 54H12.516c0.167 10.261 2.174 31.586 26.268 37.545C23.431 91.784 12.5 92.401 12.5 93.125c0 0.932 18.132 1.688 40.5 1.688s40.5-0.756 40.5-1.688C93.5 92.401 82.569 91.785 67.217 91.545z" data-fill-palette-color="accent"></path><path display="inline" fill="#ffffff" d="M43.517 29.015C46.87 23.21 52.5 16.833 52.5 16.833 48.574 16.833 43.698 20.377 43.517 29.015z" data-fill-palette-color="accent"></path><path display="inline" fill="#ffffff" d="M61.5 38.5c0-2.167-6.797-1.62-12.051-0.971C54.691 40.449 61.5 41.037 61.5 38.5z" data-fill-palette-color="accent"></path><path display="inline" fill="#ffffff" d="M43.5 38.25c0.396 0.061 2.916-0.347 5.949-0.721-3.28-1.827-5.949-4.565-5.949-8.029 0-0.168 0.014-0.321 0.017-0.485C40.92 33.512 39.689 37.666 43.5 38.25z" data-fill-palette-color="accent"></path><path display="inline" fill="#ffffff" d="M52.25 22.875c0 4 0.903 7.895 6.688 1 1.351-1.61 1.688-2.971 1.452-4.186C58.745 22.372 52.25 22.875 52.25 22.875z" data-fill-palette-color="accent"></path><path display="inline" fill="#ffffff" d="M60.39 19.689c0.666-1.086 0.54-2.527-1.14-4.439-0.723-0.824-4.915-6.277-4.915-6.277C52.594 13.305 59.616 15.702 60.39 19.689z" data-fill-palette-color="accent"></path></g><g fill="#ffffff" data-fill-palette-color="accent"><path fill="#ffffff" d="M91.073 86.509c0.014-0.102 0.031-0.2 0.031-0.305V51.993h-0.369c-2.104 14.173-16.588 14.524-18.64 0h-0.509c-2.104 14.173-16.589 14.524-18.642 0h-0.508c-2.104 14.173-16.59 14.524-18.643 0h-0.508c-2.104 14.173-16.59 14.524-18.642 0h-0.408v34.211c0 0.104 0.019 0.203 0.031 0.305H8.75v2.135h7.927 71.989 7.917v-2.135H91.073z" data-fill-palette-color="accent"></path><path fill="#ffffff" d="M33.287 41.018h0.508c2.053 14.524 16.538 14.173 18.643 0h0.508c2.053 14.524 16.537 14.173 18.642 0h0.509c2.052 14.524 16.536 14.173 18.64 0h0.369v-2.375-2.439-8.537c0-1.347-1.092-2.439-2.438-2.439H56.481c0.462-0.729 0.744-1.572 0.744-2.483 0-0.753-0.196-1.457-0.52-2.093 7.3-3.08 16.522-2.08 14.443-3.293-1.594-0.93-8.047-1.423-15.162 2.256-0.951-1.061-2.354-1.749-3.944-1.749-2.862 0-5.184 2.184-5.184 4.878 0 0.911 0.282 1.753 0.745 2.483H16.677c-1.347 0-2.439 1.092-2.439 2.439v8.537 2.439 2.375h0.408C16.697 55.542 31.183 55.19 33.287 41.018z" data-fill-palette-color="accent"></path></g></svg></g></svg></g><g><rect width="4.790014396586287" height="4.172690203368494" y="89.56260389015573" x="179.29416919983987" fill="#ffffff" data-fill-palette-color="secondary"></rect><rect width="4.790014396586287" height="4.172690203368494" y="89.56260389015573" x="61.5693332035738" fill="#ffffff" data-fill-palette-color="secondary"></rect></g></svg></g></svg></g><g><path d="M147.103 38.4A99.122 99.122 0 0 1 248.417 38.4L245.05 38.4A95.755 95.755 0 0 0 150.47 38.4L147.103 38.4M147.103 208.8A99.122 99.122 0 0 0 248.417 208.8L245.05 208.8A95.755 95.755 0 0 1 150.47 208.8L147.103 208.8" fill="#ffffff" stroke="transparent" data-fill-palette-color="tertiary"></path></g></svg></g><defs></defs></svg><rect width="395.52" height="247.2" fill="none" stroke="none" visibility="hidden"></rect></g></svg></g></svg>